<svg id="Layer_1" data-name="Layer 1" xmlns="http://www.w3.org/2000/svg" viewBox="0 0 18 18"><defs><style>.cls-1{fill:#ffdb29;}</style></defs><path class="cls-1" d="M15,15.36a9.13,9.13,0,0,1-1.37-2.15,4,4,0,0,0-.59-.85A7.17,7.17,0,0,1,12,11c.46-.52.78-1.11,1.18-1.63A1.57,1.57,0,0,0,14.3,8.9a1.64,1.64,0,0,0,.26-1.63c-.13-.33-.52-.46-.78-.66a2.07,2.07,0,0,0-1.11-2.35,1.38,1.38,0,0,0-1.7.59c-.59-.33-1.5-1-2-.2a10.71,10.71,0,0,0-4-1.3.9.9,0,0,0-.85.72.79.79,0,0,0,.52.78,15.11,15.11,0,0,1,5.43,2.61c-.4.46-.79.92-1.18,1.44a4.72,4.72,0,0,0-.52,3,12.22,12.22,0,0,0-1.64,2.81,1.4,1.4,0,0,0,.66,1.63c.39.14.91.14,1-.19a25.62,25.62,0,0,1,1.64-2.94,3,3,0,0,0,.26-1,9.36,9.36,0,0,0,1.11,1.24A12.23,12.23,0,0,0,12.67,16a1.63,1.63,0,0,0,1.17.79,1.3,1.3,0,0,0,1.24-.53.68.68,0,0,0-.06-.85Z"/><path d="M15,16.15a16.78,16.78,0,0,1-1.76-2.68c-.52-.91-1.31-1.5-1.83-2.42a12.56,12.56,0,0,1,.85-1c.2-.26.26-.65.52-.78.59-.27,1.44-.33,1.64-1.12,0-.06.13-.13.13-.19a1.64,1.64,0,0,0-.66-1.76c-.13-.07-.32-.07-.26-.2a2.46,2.46,0,0,0-1.89-2.87,1.36,1.36,0,0,0-1.44.84A6.7,6.7,0,0,0,9,3.22c-.4-.07-1-.07-1.12.45a13,13,0,0,0-4.31-1.5,1.18,1.18,0,0,0-1.3.65.94.94,0,0,0,.65,1.11A17.51,17.51,0,0,1,6.53,5.24a23.68,23.68,0,0,1,2.68,1.7,1.44,1.44,0,0,1-.46.46A9.14,9.14,0,0,0,8,8.25a4.43,4.43,0,0,0-.85,1.95c-.06.66,0,1.31,0,2a12.4,12.4,0,0,0-1.89,3.27,1.32,1.32,0,0,0-.07.85,3,3,0,0,1,.2.46,1.39,1.39,0,0,0,1.24.71.85.85,0,0,0,.65-.39,14.05,14.05,0,0,1,1.31-2.67,3,3,0,0,0,.78-1.9,13.72,13.72,0,0,0,1.31,1.44,8.7,8.7,0,0,0,2.09,3.59A1.63,1.63,0,0,0,15,17.19c.26-.32.06-.71-.07-1ZM10.84,4.33A1,1,0,0,1,12.15,4a1.54,1.54,0,0,1,.78,1.63c-.72-.39-1.37-.91-2.09-1.3Zm-2.22-.4c.06,0,.13-.06.19-.06a8.1,8.1,0,0,1,1.9,1.18c.13.06.19.06.33.13.91.58,1.63,1.17,2.54,1.69.13.13.33.2.33.46a1,1,0,0,1-.72,1.05.42.42,0,0,0,.07-.46A37.79,37.79,0,0,0,9.6,5.24a7.13,7.13,0,0,0-.92-.52c-.19-.07-.26-.33-.26-.52s0-.2.2-.27Zm.19,7.58a3.77,3.77,0,0,1-.32,1.7,19.46,19.46,0,0,0-1.7,3.27.45.45,0,0,1-.65.13.47.47,0,0,1-.26-.53,11.33,11.33,0,0,1,2-3.72A7.28,7.28,0,0,1,8,9.68,14.2,14.2,0,0,1,9.92,7.14c.14-.14.14-.33-.06-.53A21.94,21.94,0,0,0,3.13,3.28c-.32-.06.07-.59.26-.52A13,13,0,0,1,7.12,3.93c.19.14.45.2.52.33a3.91,3.91,0,0,0,.59.85c1.3,1,2.54,1.76,3.78,2.81a2.85,2.85,0,0,1,.53.33,12.42,12.42,0,0,1-1.9,2.61c-.19.19,0,.46.13.65.59.92,1.38,1.5,1.9,2.42.32.65.65,1.24,1,1.83.19.32.59.52.65.91s-.26.52-.52.52a.69.69,0,0,1-.52-.13,12.19,12.19,0,0,1-2-3.52,7.67,7.67,0,0,1-1.64-1.9l-.39-.39c-.13-.07-.32,0-.46.26Z"/><path d="M2.22,7.92c.19.13.52.26.65.46s.2.58.33.85c.13.06.06.39.45.06.07-.06,0-.13.07-.2s.2-.32.33-.39c.32-.13.58-.26.91-.39A.27.27,0,0,0,5,7.85a3.26,3.26,0,0,1-.66-.39A5.93,5.93,0,0,1,4,6.55c-.06-.13-.19-.26-.33-.07a1.89,1.89,0,0,1-1.24.92.71.71,0,0,0-.32.32c0,.07.06.13.13.2Zm1.24-.39.33-.33a1.8,1.8,0,0,0,.52.91,1.23,1.23,0,0,0-.92.53,1.12,1.12,0,0,0-.52-.92,1.93,1.93,0,0,0,.59-.19Z"/><path d="M14.5,10.39a1.38,1.38,0,0,1-.32.52c-.33.13-.72.2-.92.52,0,.07.07.13.13.2a1.68,1.68,0,0,1,.79,1.11.26.26,0,0,0,.45.06c.13-.13.2-.39.33-.52.33-.13.72-.19.91-.52,0-.07-.06-.13-.13-.2A1.7,1.7,0,0,1,15,10.45a.31.31,0,0,0-.46-.06Zm.59,1.37a.61.61,0,0,0-.65.39,1.69,1.69,0,0,0-.39-.72A.61.61,0,0,0,14.7,11c-.07.33.19.52.39.72Z"/><path d="M8.49.21a1.45,1.45,0,0,1-.33.52c-.33.13-.72.2-.91.53a.31.31,0,0,0,.13.19,1.72,1.72,0,0,1,.78,1.11.28.28,0,0,0,.46.07c.13-.13.19-.39.33-.52.32-.13.71-.2.91-.53,0-.06-.07-.13-.13-.19A1.69,1.69,0,0,1,9,.28.31.31,0,0,0,8.49.21Zm.59,1.37a.63.63,0,0,0-.66.4A1.42,1.42,0,0,0,8,1.26a.62.62,0,0,0,.65-.4c-.06.33.2.53.4.72Z"/></svg>