<svg id="Layer_1" data-name="Layer 1" xmlns="http://www.w3.org/2000/svg" viewBox="0 0 18 18"><defs><style>.cls-1{fill:#ffdb29;}</style></defs><path class="cls-1" d="M11.49,8.68A18,18,0,0,0,15.1,4.79c.47-.64,1-1.48.37-2.12-2.87-.19-5.83-.28-8.7-.19-.55,0-1.11-.18-1.57.09A.72.72,0,0,0,5,3.31a33.44,33.44,0,0,0,2.59,2.6,15.53,15.53,0,0,1,1.85,2.4,1,1,0,0,1,.09.74A19.85,19.85,0,0,0,9,13.68a15.85,15.85,0,0,0-2,1.48.73.73,0,0,0,0,1.2c2,0,4.16.28,6.2.1.28,0,.46-.47.09-.74-.83-.65-1.76-1.21-2.59-1.86A18,18,0,0,1,11.31,9c.09-.09.18-.09.18-.28Z"/><path d="M9.92,8.4A26.44,26.44,0,0,0,14.73,3c.19-.47.47-1,.19-1.48A1,1,0,0,0,14,1.09a19.52,19.52,0,0,1-3.33.1C8.16,1,5.76,1,3.26,1c-.19,0-.47.09-.65.09l-.28.28a.71.71,0,0,0,.09.83c.93,1,2,1.85,3,2.87A23.08,23.08,0,0,1,7.61,8c.09.19,0,.47,0,.74a22.08,22.08,0,0,0-.56,5.46A14.92,14.92,0,0,0,4.65,16c-.28.28-.56.84-.28,1.21a.85.85,0,0,0,.65.27c2.31-.09,4.62.47,7,0,.18,0,.37-.37.18-.64s-.37-.28-.55-.47A13.8,13.8,0,0,1,9,14.42a26.6,26.6,0,0,1,.64-5.28,1.29,1.29,0,0,1,.28-.74Zm-1.11.65a30.31,30.31,0,0,0-.65,5.74c.93.74,1.95,1.39,2.87,2.13-1.94-.28-3.79-.09-5.74-.37a24.1,24.1,0,0,1,2.5-1.85,20.47,20.47,0,0,1,.56-5.37c.55-2-1.3-3.24-2.41-4.72A12.26,12.26,0,0,0,4.37,3c-.37-.47-.93-.74-1.2-1.3,3.7-.09,7.4.37,11.1.28A15.22,15.22,0,0,1,12.6,4.61c-.09.09-.27.18-.37.28A34.47,34.47,0,0,1,9.09,8.13a1.5,1.5,0,0,0-.28.92Z"/><path d="M5.76,4.05A12.84,12.84,0,0,1,8,6.74c.18.09.37.28.65.18A10.19,10.19,0,0,0,11.4,4.05a2.59,2.59,0,0,1-1.2.1,36.57,36.57,0,0,0-4.44-.1Z"/><path d="M9.1,2.62h0a.24.24,0,0,0-.19-.08.93.93,0,0,0-.27.05.65.65,0,0,1-.19,0,11,11,0,0,1-1.29-.1,8.72,8.72,0,0,0-1.77-.09.27.27,0,0,0-.22.15.24.24,0,0,1-.06.08l-.18.18.25.05A9.94,9.94,0,0,0,6.58,3a8.94,8.94,0,0,1,1.36.13,1,1,0,0,0,.3,0A2.33,2.33,0,0,0,9,3.08l0,0,.44-.44Z"/></svg>