<svg id="Layer_1" data-name="Layer 1" xmlns="http://www.w3.org/2000/svg" viewBox="0 0 18 18"><defs><style>.cls-1{fill:#ffdb29;}</style></defs><path class="cls-1" d="M15.39,4.67c.07-.27.2-.62-.07-.9a2,2,0,0,0-1.25-.49.14.14,0,0,1-.14-.13c0-.28.27-.56.21-.84a1.23,1.23,0,0,0-1.39-.76A3.28,3.28,0,0,0,11,3.63c-1-.35-1.95.42-2.64,1.11C7.05,6.06,5.94,7.31,4.55,8.56a1.64,1.64,0,0,0-.28,1.6A8.73,8.73,0,0,0,1.91,10c-.63.07-.49.91-.21,1.32s.76.49,1.25.63c.07.07.14.14.14.21a1.09,1.09,0,0,0,.83,1.53c.21,0,.56,0,.56.27s-.21.49-.14.77c0,.07.14.21.14.28A1.3,1.3,0,0,0,6,15.3,3.63,3.63,0,0,0,7.4,13.36,1.83,1.83,0,0,0,9,13.15a19.66,19.66,0,0,0,3-3c.63-.69,1.39-1.18,1.95-1.87a1.55,1.55,0,0,0,.14-1.53c.76.14,1.45.21,2.22.35A.63.63,0,0,0,17,6.62c.14-.9-.62-1.46-1.46-1.53-.2-.07-.13-.28-.13-.42ZM10.8,9.88a2.54,2.54,0,0,1-1.18.7A2.23,2.23,0,0,1,7.26,9.33,2.21,2.21,0,0,1,8.37,6.55a2.21,2.21,0,0,1,2.78,1.11,2.13,2.13,0,0,1-.35,2.22Z"/><path d="M7.88,8.36a1.62,1.62,0,0,1,1.25-.42,1.43,1.43,0,0,1,.14,2.78,1.8,1.8,0,0,1-1-.14,1.42,1.42,0,0,1-.35-2.22m-.34-.7a2.19,2.19,0,0,0-.35,3.06,2.27,2.27,0,0,0,3.05.35c.07-.14.21-.21.35-.35a2.8,2.8,0,0,0,.49-1.46,2.31,2.31,0,0,0-.63-1.46,2.14,2.14,0,0,0-2.91-.14Z"/><path d="M15.25,5.37a.73.73,0,0,0-.07-.9A2,2,0,0,0,13.93,4a.15.15,0,0,1-.14-.14c.07-.42.28-.83.07-1.18a1.39,1.39,0,0,0-1.6-.35A3.47,3.47,0,0,0,11,3.7c-.07.21-.21.42-.28.63a2.14,2.14,0,0,0-1.32.07A3.42,3.42,0,0,0,8.58,5C7.4,6.06,6.35,7.24,5.24,8.43c-.41.41-.83.69-1.25,1.11a1.55,1.55,0,0,0-.14,1.53,15.07,15.07,0,0,0-2.5-.28.64.64,0,0,0-.34.28c-.35.9.55,1.66,1.38,1.73.07,0,.21.21.21.28a1.06,1.06,0,0,0,.21,1.25,1.53,1.53,0,0,0,1.11.35.15.15,0,0,1,.14.14c0,.27-.28.62-.21.9a1.3,1.3,0,0,0,1.74.63,3.82,3.82,0,0,0,1.46-2c1.87.35,2.92-1.53,4.17-2.64.14-.14.28-.42.41-.56.35-.27.56-.62.91-.9s.76-.62,1.11-1a1.62,1.62,0,0,0,.28-1.74c.76,0,1.53.28,2.29.28.21,0,.49,0,.62-.28A1.33,1.33,0,0,0,16.08,6c-.35-.13-1-.13-.83-.62Zm-10,10.42c-.21,0-.41-.07-.41-.14-.14-.42.27-.83-.07-1.25s-.91-.35-1.39-.56a.24.24,0,0,1-.07-.13,1,1,0,0,0-.07-1.12C3,12.18,2.39,12.18,2,12c-.21-.07-.21-.35-.21-.56A6.78,6.78,0,0,0,3,11.62a4.78,4.78,0,0,0,1.39.21c.42.42.76.83,1.18,1.32l.83.83a5.34,5.34,0,0,1-.76,1.46.84.84,0,0,0-.35.35ZM13,7.45c.35.28.28.7.28,1-.69.84-1.6,1.46-2.29,2.44-.07.07-.21.14-.28.2a13.37,13.37,0,0,1-2.43,2.44,1.24,1.24,0,0,1-1.18,0c-.83-.84-1.67-1.6-2.43-2.5a.72.72,0,0,1-.07-.84A18.8,18.8,0,0,1,6.22,8.56C7,7.66,7.74,6.83,8.51,6c.55-.48,1.11-1.18,1.94-1A20.52,20.52,0,0,1,13,7.45Zm2.64-.9a.51.51,0,0,1,.49.62c-.9-.13-1.81-.27-2.71-.34-.62-.7-1.32-1.39-1.94-2.09a4,4,0,0,1,1.18-1.87.36.36,0,0,1,.48.28c0,.27-.27.55-.21.83.28.69,1,.62,1.6.83.07.28-.14.49-.14.7,0,.55.7,1,1.25,1Z"/></svg>