<svg id="Layer_1" data-name="Layer 1" xmlns="http://www.w3.org/2000/svg" viewBox="0 0 18 18"><defs><style>.cls-1{fill:#ffdb29;}</style></defs><path d="M6.51,1.5C2.65,2.68.64,7,1.48,10.9c.67,3,3.18,4.86,5.87,5.87a8.93,8.93,0,0,0,5.53-.5,8.76,8.76,0,0,0,4.37-5.37,8.38,8.38,0,0,0-3.19-8.56A8.55,8.55,0,0,0,6.51,1.5Zm0,7.72c0-1,.17-2.18,1-2.68a3.27,3.27,0,0,1,3.69,0,3.2,3.2,0,0,1,1.17,2.85A3,3,0,0,1,8.86,11.9,2.84,2.84,0,0,1,6.51,9.22Zm8.72-1.34c.17,3.18-1.51,6.2-4.86,6.88a.84.84,0,0,1-.51-.17l.17-.51a5.63,5.63,0,0,0,4.36-3.35c.34-1-.16-2.18.34-3a.82.82,0,0,1,.5.17Z"/><path class="cls-1" d="M10,6.87A2.71,2.71,0,0,0,6.9,8.06a3,3,0,0,0,.95,3.79c.71.48,1.42.24,2.14.24,1.42-.24,2.13-1.9,1.89-3.32A2.57,2.57,0,0,0,10,6.87ZM8.8,10c0-.23-.24-.23-.24-.47a.72.72,0,0,1,1.43,0,.8.8,0,0,1-.24.47Z"/></svg>