<svg id="Layer_1" data-name="Layer 1" xmlns="http://www.w3.org/2000/svg" viewBox="0 0 18 18"><defs><style>.cls-1{fill:#ffdb29;}</style></defs><path class="cls-1" d="M10.05,14a10.3,10.3,0,0,0,1.15,2.3,11.5,11.5,0,0,1-3.36-.58,12.68,12.68,0,0,1-3.36-4.58,10.45,10.45,0,0,0-3-3.28c-.4-.24-.24-.82,0-1.23A2,2,0,0,1,3,6a1.53,1.53,0,0,1,.82.25A8.64,8.64,0,0,1,6.53,9c.74,1.15,1.15,2.29,2,3.44.49.65,1.06,1,1.55,1.55Z"/><path d="M10.05,14.92a5.72,5.72,0,0,1-1.47-1.64c-1.47-2.21-2.21-4.51-4.5-5.9a2.21,2.21,0,0,0-2.54.25,1.42,1.42,0,0,0-.25,2,13.14,13.14,0,0,1,2.54,2.62A15.41,15.41,0,0,0,7.19,17a2.64,2.64,0,0,0,.9.25c.16,0,.24.08.41.16a16.57,16.57,0,0,0,2.86.41,8.1,8.1,0,0,1-1.31-2.94ZM2,8.69a1.13,1.13,0,0,1,1.31-.82c.41.08.57.49.9.66a1.49,1.49,0,0,1-.57.41l-.25.24c-.08.09-.25.09-.33.17s-.16.24-.24.24A1.73,1.73,0,0,1,2,8.69Zm5.65,7.7a12.19,12.19,0,0,1-1.39-1.56,30.29,30.29,0,0,0-2.87-4.66,9.45,9.45,0,0,0,1.47-1c1.31,1.31,1.89,3.12,3,4.75.41.49.82.9,1.23,1.4.25.49.33,1.06.57,1.55l-1.22-.24a2.49,2.49,0,0,0-.74-.25Z"/><path d="M12.1,5.09a5.33,5.33,0,0,1-2.54.08A8.43,8.43,0,0,0,7.68,4.6a5.06,5.06,0,0,0-1.89.16.6.6,0,0,1-.4-.08.3.3,0,0,1,0-.49C6.78,3,8.58,4,10.22,4.35a6.63,6.63,0,0,0,2.21-.16c.33.33,0,.74-.33.9Z"/><path d="M12.1,7a5.21,5.21,0,0,1-2.54.08,8.43,8.43,0,0,0-1.88-.57,5.06,5.06,0,0,0-1.89.16.6.6,0,0,1-.4-.08.3.3,0,0,1,0-.49c1.39-1.14,3.19-.16,4.83.17a6.91,6.91,0,0,0,2.21-.17c.33.33,0,.74-.33.9Z"/><path d="M12.1,8.77a5.33,5.33,0,0,1-2.54.09,8,8,0,0,0-1.88-.58,4.87,4.87,0,0,0-1.89.17c-.16,0-.32,0-.4-.09a.3.3,0,0,1,0-.49c1.39-1.14,3.19-.16,4.83.17a6.91,6.91,0,0,0,2.21-.17c.33.33,0,.74-.33.9Z"/><path d="M6.12,14.92a2.79,2.79,0,0,1-1.72-.58c-.57-.57-.24-1.39-.16-2a3.38,3.38,0,0,0-1.15-.74,9,9,0,0,1,.08,2.13,2.41,2.41,0,0,0,1.15,1.72,6.72,6.72,0,0,0,2.87.24,5.05,5.05,0,0,1-1.07-.73Z"/><path d="M12.84.5C11,.5,9.32.34,7.51.18,6,.09,4,0,3.5,1.73a21.13,21.13,0,0,1-.24,5.08c.32.16.49.57.73.82A22.45,22.45,0,0,0,4.57,1.9c0-.5.57-.82,1.06-.91a50.84,50.84,0,0,1,7.86.66c.41.08.58.49.74.82a2.4,2.4,0,0,1,.08,1.06c.17,2.79-.65,5.41-1,8.19a21.87,21.87,0,0,0,0,2.29,1.26,1.26,0,0,1-1.39,1,24.07,24.07,0,0,1-2.54-.17,3.39,3.39,0,0,1,.49.9,20,20,0,0,0,3.19-.08,1.73,1.73,0,0,0,1.23-1.47c.08-1.31,0-2.62.17-4A36.63,36.63,0,0,0,15.13,3a6.23,6.23,0,0,0-.33-1.23,2.27,2.27,0,0,0-2-1.23Z"/></svg>