<svg id="Layer_1" data-name="Layer 1" xmlns="http://www.w3.org/2000/svg" viewBox="0 0 18 18"><defs><style>.cls-1{fill:#ffdb29;}</style></defs><path class="cls-1" d="M17.44,12a5.11,5.11,0,0,0-.41-1,.36.36,0,0,0-.49-.16.36.36,0,0,0-.24.49c.16.57.73,1.14.4,1.71a1.25,1.25,0,0,1-1.63.33c.17-1.15.66-2.12.82-3.26a1.32,1.32,0,0,0,1-1.06A.88.88,0,0,0,16.13,8a23.25,23.25,0,0,1-6.68-.9,1.06,1.06,0,0,0-1.3.57,1.24,1.24,0,0,0,.41,1.47v2.36c-.25-.08-.58-.08-.82-.16a1.22,1.22,0,0,0-.49-1.47A28.41,28.41,0,0,0,8.31,2.09a1.21,1.21,0,0,0-1.06-1,1.32,1.32,0,0,0-.73.24.55.55,0,0,0-.17.58c.09,1.05-.08,2-.08,3C6.11,6.57,5.7,8,5.54,9.67a1.5,1.5,0,0,0-.9,1.38c-.89,0-1.87.08-2.77.17a.52.52,0,0,0-.4.48c.08.66-.41,1.63.4,2a7.69,7.69,0,0,0,.17,2c1.46,0,2.85-.17,4.31-.09s2.61.17,3.92.33a18.15,18.15,0,0,0,4.23.08,11.64,11.64,0,0,0,.41-1.87,1.53,1.53,0,0,0,1.55.08c.73-.33,1.55-1.22,1-2.12Z"/><path class="cls-1" d="M9.21,6.16c.32.08.57-.16.81-.4a.89.89,0,0,0-.49-1.39,1.07,1.07,0,0,0-1.06.33,1,1,0,0,0-.08,1,1.08,1.08,0,0,0,.82.49Z"/><path class="cls-1" d="M2.69,10a.68.68,0,0,0,.65-.24c.33-.57.08-1.31-.57-1.22-.33,0-.82.24-.82.65a.86.86,0,0,0,.74.81Z"/><path class="cls-1" d="M14.83,2.9A1.05,1.05,0,0,0,16,2.17a1.34,1.34,0,0,0-.49-1.3,1.09,1.09,0,0,0-1.22,0,1.16,1.16,0,0,0-.16,1.79,1.07,1.07,0,0,1,.4.24Z"/><path d="M16.79,11.38c-.25-.25-.57.08-.57.32,0,.74.73,1.47.24,2.2a1.1,1.1,0,0,1-1.5.27,11.71,11.71,0,0,0,.57-2.8c0-.29.16-.66.19-1a1.45,1.45,0,0,0,.7-.88,1,1,0,0,0-.81-1.3,18.78,18.78,0,0,1-2.12.08A22,22,0,0,0,8.28,7.7,1.47,1.47,0,0,0,7.05,8.84a1,1,0,0,0,.57,1.22,1,1,0,0,0,.3,0,4.33,4.33,0,0,1,.36,1.18A12.93,12.93,0,0,0,8.52,13l.09,0a5.05,5.05,0,0,1-1.15-.12H7.4a1.6,1.6,0,0,0-.92-1.71h0a11.07,11.07,0,0,1,0-2.76c.25-2.12,1.06-4.24.16-6.27-.08-.25-.4-.41-.65-.49a.81.81,0,0,0-1.06.65A20.36,20.36,0,0,1,5,4.52c-.32,2.29-.94,4.42-.54,6.7A1.24,1.24,0,0,0,4,12.1l-.06.26a11,11,0,0,0-1.82,0,3,3,0,0,0-1.71.49v2A.17.17,0,0,0,.53,15l.19,0a15.35,15.35,0,0,0,0,1.66.37.37,0,0,0,.24.33,12.73,12.73,0,0,1,2.45-.25c1.14.08,2.11.41,3.26.57a10,10,0,0,0,3.5-.16,1.27,1.27,0,0,0,.22-.13l3.53.21a.87.87,0,0,0,.41-.32,12.4,12.4,0,0,1,.43-1.94,1.18,1.18,0,0,0,.74.16,1.87,1.87,0,0,0,1.88-1.15A3.22,3.22,0,0,0,16.79,11.38ZM8.28,8.51a5.34,5.34,0,0,1,2-.08c1.79.25,3.42.82,5.22.65.29-.07.32.45.09.61l-.17-.12c-.09,0-.25.08-.41.08a17.72,17.72,0,0,1-3.1-.12A18.07,18.07,0,0,0,8,9.25c-.08,0-.16-.25-.16-.33A.46.46,0,0,1,8.28,8.51Zm-2.53-3a8.52,8.52,0,0,0-.08-2.85c0-.25.32-.17.4,0,.41,1.95-.24,3.74-.48,5.62a6.66,6.66,0,0,0,.06,2.78H5.24A13.58,13.58,0,0,1,5.75,5.5Zm-.82,6.36a3.76,3.76,0,0,0,.82,0l.57.15c.31.07.25.44.24.75-.65-.11-1.3-.23-2-.32A.58.58,0,0,1,4.93,11.86ZM1.18,13.24a9,9,0,0,1,2.53-.16l.16,0a.6.6,0,0,0,.17.3c.55,0,1.15,0,1.73.09a11.08,11.08,0,0,0,1.53.24,6.68,6.68,0,0,0,2.75-.06A1.33,1.33,0,0,1,10,14c-.33,0-.33.17-.41.33s0,.11,0,.16a11.36,11.36,0,0,1-2.1.08H7.34c-.51-.06-1-.16-1.54-.26s-1-.22-1.52-.3l-.51,0a6.82,6.82,0,0,0-2.67.11A2.79,2.79,0,0,1,1.18,13.24Zm3,2.69A6.11,6.11,0,0,0,1.51,16a3.15,3.15,0,0,1,.08-1.22c.41,0,.83-.08,1.24-.1a4.61,4.61,0,0,1,1,.1c.82.11,1.63.26,2.43.38a8.86,8.86,0,0,0,1.24.19,9.64,9.64,0,0,0,2,0,3.73,3.73,0,0,0,.06,1.15A13.48,13.48,0,0,1,4.2,15.93Zm9.29.49c-1-.15-2-.23-2.93-.3v-1a1.1,1.1,0,0,0,.32-.24A3.62,3.62,0,0,0,11,13.21a1.91,1.91,0,0,0,.09-.54c-.49-.41-1.23-.25-1.8-.33a21.68,21.68,0,0,0-.4-2.2c.66,0,1.32,0,2,0,.88.15,1.77.34,2.66.45A7.11,7.11,0,0,0,15,10.56a10.89,10.89,0,0,1-.62,2.86c-.8-1.13-1.49-2.42-2.92-2.69-.25-.08-.49.16-.41.32s.08.17.16.25a14.58,14.58,0,0,1,2.88,3A15,15,0,0,0,13.49,16.42Z"/><path d="M8,6.64c.16.08.41.08.57.16A1.09,1.09,0,0,0,9.66,6,1,1,0,0,0,9.17,4.6a1.2,1.2,0,0,0-1.79.9,1.41,1.41,0,0,0,.08.57C7.62,6.23,7.7,6.48,8,6.64Zm.33-1.31a.6.6,0,0,1,.4-.08A.42.42,0,0,1,9,5.66.45.45,0,0,1,8.52,6C8.19,5.91,8,5.58,8.28,5.33Z"/><path d="M2,10.31a1,1,0,0,0,1.06-.66,1.34,1.34,0,0,0-.16-1,1,1,0,0,0-1.63.08,1,1,0,0,0-.09,1A1.24,1.24,0,0,0,2,10.31ZM2,9.16h.16c.08.09.17.17.17.25l-.09.08a.48.48,0,0,1-.32-.08C1.84,9.33,1.92,9.25,2,9.16Z"/><path d="M14.14,4a1.52,1.52,0,0,0,1.39-.73A1.39,1.39,0,0,0,13.08,2,1.44,1.44,0,0,0,14.14,4Zm.25-2a.45.45,0,0,1,.4.25.54.54,0,0,1-.16.81.54.54,0,0,1-.89-.32A.59.59,0,0,1,14.39,2.07Z"/></svg>