<?xml version="1.0" encoding="utf-8"?>
<!-- Generator: Adobe Illustrator 24.1.1, SVG Export Plug-In . SVG Version: 6.00 Build 0)  -->
<svg version="1.1" id="Layer_1" xmlns="http://www.w3.org/2000/svg" xmlns:xlink="http://www.w3.org/1999/xlink" x="0px" y="0px"
	 viewBox="0 0 519 408" style="enable-background:new 0 0 519 408;" xml:space="preserve">
<style type="text/css">
	.st0{fill:#FFDB29;}
</style>
<g>
	<g>
		<path class="st0" d="M359.84,34.89c-86.98-2.11-157.92,73.15-241.23,88.77c-22.81,4.52-38.77,20.74-34.05,43.52
			c9.6,46.32,19.21,92.64,28.81,138.96c4.72,22.76,28.36,43.59,51.17,39.07c83.31-15.62,154.25-90.87,241.23-88.77
			c23.82,0.32,40.91-10.43,36.18-33.24c-9.6-46.32-19.21-92.64-28.81-138.96C408.43,61.51,383.66,35.2,359.84,34.89z"/>
		<path d="M352.59,51c-92.23,4.28-167.23,91.65-260.39,91.46c-25.5,0.26-43.9,11.8-38.81,36.33c10.33,49.84,20.67,99.68,31,149.51
			c5.07,24.47,31.74,52.79,57.24,52.53c93.16,0.19,168.16-87.18,260.39-91.46c25.25-1.48,43.36-14.4,38.27-38.93
			c-10.33-49.84-20.67-99.68-31-149.51C404.21,76.47,377.83,49.52,352.59,51z M307.12,180.26c7.15-10.26,15.27-21.89,24.68-34.44
			c23.71-32.4,47.38-54.7,55.77-61.07c2.55,3.95,4.41,8.2,5.3,12.5c10.33,49.84,20.67,99.68,31,149.52
			c1.3,6.27,0.37,11.7-2.24,16.02C381.48,225.73,343.81,200.63,307.12,180.26z M355.7,66.01c6.71-0.32,13.45,1.98,19.36,5.96
			c-7.66,6.56-31.18,30.93-54.95,65.04c-52.01,77.22-65.97,94.67-69.67,95.02c-0.96,0.79-5.02,1.69-18.05,0.48
			c-13.1-1.54-35.16-5.19-73.75-21.39c-34.43-14.51-69.29-40.18-80.19-49.35c4.44-2.77,10.25-4.31,16.86-4.3
			C188.47,157.66,263.47,70.29,355.7,66.01z M110.64,351.37c-4.8-5.52-8.31-12-9.64-18.42c-10.33-49.84-20.67-99.68-31-149.51
			c-0.92-4.46-0.7-8.44,0.45-11.84c11.48,10.26,46.68,37.95,81.32,53.79c13.11,6.24,24.33,10.53,34.06,13.79
			C162.38,284.35,137.83,324.24,110.64,351.37z M138.51,365.84c-4.55-0.01-9.11-1.19-13.42-3.26
			c26.71-30.32,50.93-72.61,74.25-119.28c42.39,10.96,50.19,5.49,54.22,3.73c6.26-3.07,17.1-13.64,43.79-52.68
			c36.74,19.4,74.27,42.65,114.14,77.14c-3.65,1.66-7.91,2.67-12.58,2.89C306.67,278.66,231.67,366.03,138.51,365.84z"/>
	</g>
</g>
</svg>
