<?xml version="1.0" encoding="utf-8"?>
<!-- Generator: Adobe Illustrator 24.1.1, SVG Export Plug-In . SVG Version: 6.00 Build 0)  -->
<svg version="1.1" id="Layer_1" xmlns="http://www.w3.org/2000/svg" xmlns:xlink="http://www.w3.org/1999/xlink" x="0px" y="0px"
	 viewBox="0 0 519 408" style="enable-background:new 0 0 519 408;" xml:space="preserve">
<style type="text/css">
	.st0{fill:#FFDB29;}
	.st1{fill:#FFFFFF;}
</style>
<path class="st0" d="M232.9,394.28c3.51-0.17,10.3-0.45,17.08-0.83c10.95-0.62,21.8-2.11,32.53-4.32
	c14.81-3.05,29.31-7.25,43.5-12.45c12.9-4.72,25.74-9.62,38.63-14.35c13.33-4.89,26.47-10.25,39.41-16.07
	c19.34-8.7,37.82-18.89,54.83-31.63c10.62-7.95,20.47-16.71,28.68-27.21c11.05-14.14,17.08-30.15,17.6-48.08
	c0.23-7.92-0.12-15.86-0.35-23.78c-0.15-5.28-0.89-10.56-0.22-15.84c1.12-8.85,0.87-17.63-0.97-26.36
	c-1.9-9.02-5.24-17.49-9.79-25.48c-4.57-8.02-10.1-15.39-15.87-22.58c-4.69-5.85-8.78-12.08-12.26-18.7
	c-3.12-5.94-6.15-11.94-9.25-17.89c-2.65-5.09-5.41-10.13-8.85-14.74c-5.44-7.28-12.16-13.2-19.76-18.13
	c-9.82-6.38-20.49-10.96-31.67-14.33c-16.43-4.97-33.3-7.42-50.41-8.15c-20.89-0.89-41.66,0.48-62.31,3.87
	c-15.61,2.56-30.9,6.29-45.84,11.5c-13.72,4.79-26.86,10.86-39.61,17.81c-10.34,5.64-20.68,11.28-31.06,16.85
	c-11.91,6.39-24.07,12.31-35.49,19.58c-8.95,5.69-17.46,11.95-25.05,19.36c-6.38,6.22-12.6,12.6-18.74,19.06
	c-4.48,4.71-8.52,9.82-12.09,15.26c-6.28,9.58-11.15,19.83-14.8,30.71c-3.19,9.48-4.61,19.08-3.13,28.99
	c1.35,9.03,2.82,18.05,4.51,27.02c2.26,12.05,5.83,23.75,10.37,35.14c3.6,9.04,7.46,17.99,11.17,26.99
	c4.78,11.58,9.51,23.18,15.5,34.22c7.4,13.66,17.68,24.57,30.88,32.72c9.65,5.96,20.14,9.97,31,13.03
	c9.53,2.68,19.21,4.62,29.02,5.97C203.21,393.24,216.38,394.17,232.9,394.28z"/>
<path d="M480.95,143.42c-3.9-10.32-9.56-19.69-15.78-28.73c-5.14-7.49-9.77-15.26-13.58-23.52c-3.77-8.16-7.83-16.17-12.35-23.96
	c-6.27-10.82-14.75-19.44-24.98-26.47c-13.3-9.14-28.03-15.06-43.53-19.2c-14.5-3.87-29.27-6.03-44.24-6.99
	c-14.82-0.96-29.6-0.6-44.37,0.76c-14.98,1.39-29.81,3.76-44.49,7.07c-24.96,5.62-48.8,14.33-71.47,26.18
	c-9.44,4.93-18.75,10.1-28.11,15.18c-12.47,6.78-25.03,13.42-37.37,20.42c-12.53,7.11-24.14,15.58-34.26,25.88
	c-7.09,7.22-14.01,14.62-20.63,22.28c-12.25,14.18-22.06,29.84-27.8,47.87c-2.92,9.17-3.9,18.43-2.4,27.95
	c1.03,6.49,2.02,12.98,3.04,19.47c0.47,2.98,0.91,5.98,1.48,8.94c2.32,12.13,6.08,23.85,10.44,35.38
	c4.96,13.14,9.89,26.3,14.81,39.46c3.1,8.28,6.06,16.62,10.21,24.45c2.22,4.2,4.36,8.51,7.14,12.33
	c9.33,12.82,21.74,21.86,36.06,28.47c10.77,4.97,22.11,8.14,33.62,10.67c20.94,4.61,42.19,6.74,63.63,6.95
	c14,0.17,27.95-0.58,41.8-2.6c17.09-2.49,33.76-6.83,50.01-12.62c11.88-4.23,23.58-8.93,35.35-13.47
	c16.99-6.54,33.88-13.3,50.42-20.91c21.67-9.96,42.54-21.3,61.77-35.5c12.45-9.19,24.06-19.24,33.44-31.68
	c8.92-11.83,14.5-25.03,16.5-39.73c1.25-9.18,1.06-18.4,0.72-27.61c-0.31-8.55-0.15-17.06,0.68-25.58
	C488.13,170.4,485.97,156.7,480.95,143.42z M473.15,205.97c0.23,7.92,0.58,15.86,0.35,23.78c-0.52,17.93-6.55,33.94-17.6,48.08
	c-8.21,10.5-18.07,19.26-28.68,27.21c-17.01,12.74-35.49,22.93-54.83,31.63c-12.95,5.82-26.08,11.18-39.41,16.07
	c-12.9,4.73-25.73,9.63-38.63,14.35c-14.2,5.19-28.69,9.39-43.5,12.45c-10.73,2.21-21.58,3.7-32.53,4.32
	c-6.79,0.38-13.58,0.66-17.08,0.83c-16.52-0.11-29.69-1.04-42.81-2.85c-9.81-1.35-19.49-3.29-29.02-5.97
	c-10.87-3.06-21.36-7.07-31-13.03c-13.2-8.15-23.47-19.06-30.88-32.72c-5.98-11.04-10.72-22.64-15.5-34.22
	c-3.71-9-7.57-17.95-11.17-26.99c-4.54-11.38-8.11-23.09-10.37-35.14c-1.69-8.97-3.16-17.99-4.51-27.02
	c-1.48-9.91-0.05-19.51,3.13-28.99c3.66-10.88,8.52-21.13,14.8-30.71c3.57-5.44,7.61-10.55,12.09-15.26
	c6.14-6.46,12.36-12.84,18.74-19.06c7.59-7.41,16.11-13.66,25.05-19.36c11.43-7.27,23.59-13.19,35.49-19.58
	c10.38-5.57,20.72-11.22,31.06-16.85c12.75-6.95,25.89-13.02,39.61-17.81c14.94-5.21,30.23-8.94,45.84-11.5
	c20.65-3.39,41.42-4.75,62.3-3.87c17.1,0.73,33.98,3.18,50.41,8.15c11.18,3.38,21.84,7.95,31.67,14.33
	c7.6,4.93,14.32,10.85,19.76,18.13c3.44,4.61,6.2,9.64,8.85,14.74c3.1,5.96,6.12,11.95,9.25,17.89c3.48,6.63,7.57,12.86,12.26,18.7
	c5.77,7.19,11.3,14.56,15.87,22.58c4.55,7.98,7.89,16.46,9.79,25.48c1.84,8.73,2.09,17.51,0.97,26.36
	C472.26,195.41,473,200.69,473.15,205.97z"/>
<path class="st1" d="M234.86,323.73c-5.66-0.25-11.33-0.33-16.97-0.79c-9.65-0.79-19.14-2.56-28.43-5.35
	c-8.65-2.59-16.88-6.15-24.63-10.76c-8.26-4.92-15.91-10.65-22.91-17.29c-8.27-7.85-15.37-16.62-21.29-26.35
	c-7.09-11.64-11.25-24.35-13.57-37.71c-0.27-1.54,0.06-1.97,1.62-1.84c1.58,0.14,3.13,0.59,4.7,0.68c1.41,0.08,2.91,0.09,4.23-0.32
	c2.69-0.84,3.37-3.87,1.27-5.73c-1.14-1.01-2.63-1.88-4.1-2.23c-9.3-2.23-18.68-2.64-28.04-0.35c-3.09,0.75-6.08,1.85-8.76,3.61
	c-2.5,1.65-2.56,4.34-0.18,6.2c0.47,0.37,1.01,0.67,1.56,0.89c2.03,0.84,4.12,0.94,6.21,0.25c1.65-0.54,3.26-1.2,4.89-1.8
	c2.18-0.79,2.7-0.54,3.19,1.64c0.5,2.21,0.97,4.43,1.37,6.66c1.27,7.17,3.49,14.06,6.17,20.81c5.97,15.04,14.61,28.42,25.42,40.43
	c6.75,7.5,14.29,14.09,22.67,19.72c9.41,6.32,19.56,11.06,30.41,14.32c14.65,4.41,29.67,6.33,44.93,6.25
	c6.79-0.03,13.59-0.42,20.36-0.89c11.09-0.76,22.06-2.55,32.9-4.99c8.83-1.99,17.59-4.29,26.34-6.65
	c14.22-3.83,28.2-8.41,41.83-14.05c11.12-4.6,21.91-9.83,32-16.41c8.9-5.81,17.08-12.45,23.75-20.82
	c11.36-14.25,16.13-30.51,14.87-48.61c-0.09-1.36-0.21-2.71-0.26-4.07c-0.07-1.91,0.49-2.29,2.31-1.59c0.84,0.32,1.65,0.74,2.48,1.1
	c1.76,0.76,3.58,1.19,5.51,0.98c1.93-0.21,3.2-1.27,3.82-3.07c0.57-1.66-0.13-2.99-1.34-4.03c-0.85-0.73-1.79-1.48-2.82-1.85
	c-3.34-1.18-6.68-2.45-10.12-3.19c-7.96-1.7-15.93-1.09-23.83,0.64c-1.32,0.29-2.67,0.58-3.91,1.11c-2.38,1.01-2.95,3.12-1.33,5.1
	c0.69,0.84,1.69,1.49,2.68,1.98c1.68,0.83,3.53,0.71,5.34,0.45c1.42-0.2,2.82-0.53,4.23-0.78c2.01-0.36,2.98-0.29,3.29,2.36
	c0.95,8.01,0.88,15.96-0.84,23.88c-2.36,10.87-7.26,20.44-14.56,28.79c-6.88,7.88-15.17,14.03-24.1,19.36
	c-9.76,5.82-20.09,10.47-30.7,14.45c-19.84,7.44-40.2,13-61.11,16.54C259.29,322.49,247.13,323.6,234.86,323.73z"/>
<path class="st1" d="M180.68,168.73c0,1.81,0.07,3.62-0.01,5.43c-0.21,4.4,0.1,8.76,1.09,13.05c1.11,4.81,2.71,9.41,6.06,13.24
	c3.34,3.82,7.88,5.02,12.44,2.78c1.86-0.91,3.71-2.14,5.12-3.64c2.83-3.02,5.63-6.14,7.94-9.56c3.42-5.06,6.58-10.32,9.54-15.66
	c3.47-6.28,6.48-12.81,8-19.9c1.73-8.02,2.75-16.08,1.09-24.26c-2.39-11.76-4.81-23.52-7.19-35.28c-0.65-3.2-1.45-6.33-3.05-9.2
	c-2.35-4.21-6.19-5.49-10.59-3.47c-3.05,1.4-5.76,3.32-8.08,5.75c-5.45,5.69-9.48,12.3-12.53,19.53
	c-3.64,8.63-5.54,17.68-6.78,26.93C182.2,145.84,180.39,157.19,180.68,168.73z"/>
<path class="st1" d="M339.13,127.61c0.04,0,0.08,0,0.11,0c0-4.15,0.05-8.31-0.01-12.46c-0.1-6.42-0.18-12.84-0.46-19.25
	c-0.1-2.24-0.57-4.51-1.23-6.66c-1.31-4.2-4.3-6.03-8.67-5.55c-1.12,0.12-2.24,0.36-3.32,0.69c-5.54,1.73-10.14,4.99-14.2,9.03
	c-7.94,7.89-12.03,17.68-13.49,28.57c-0.95,7.1-1.24,14.29-1.86,21.44c-0.54,6.24-1.09,12.49-1.72,18.72
	c-0.71,7.07-1.49,14.13-0.61,21.24c0.46,3.71,1.35,7.28,3.23,10.53c2.56,4.44,6.76,6.42,11.63,5.52c4.06-0.75,7.53-2.64,10.69-5.17
	c4.65-3.73,8.35-8.31,11.5-13.32c5.32-8.47,8.79-17.46,8.47-27.73C338.92,144.7,339.13,136.15,339.13,127.61z"/>
<path d="M234.86,323.73c12.27-0.13,24.44-1.24,36.53-3.29c20.91-3.55,41.27-9.11,61.11-16.54c10.61-3.98,20.94-8.63,30.7-14.45
	c8.94-5.32,17.22-11.48,24.1-19.36c7.3-8.35,12.19-17.92,14.56-28.79c1.72-7.93,1.79-15.87,0.84-23.88
	c-0.31-2.64-1.28-2.72-3.29-2.36c-1.41,0.25-2.81,0.57-4.23,0.78c-1.81,0.26-3.66,0.38-5.34-0.45c-0.99-0.49-1.99-1.15-2.68-1.98
	c-1.62-1.98-1.05-4.09,1.33-5.1c1.24-0.52,2.59-0.82,3.91-1.11c7.9-1.73,15.87-2.34,23.83-0.64c3.45,0.74,6.78,2.01,10.12,3.19
	c1.03,0.36,1.97,1.12,2.82,1.85c1.21,1.04,1.92,2.38,1.34,4.03c-0.62,1.8-1.89,2.86-3.82,3.07c-1.93,0.21-3.75-0.22-5.51-0.98
	c-0.83-0.36-1.64-0.78-2.48-1.1c-1.83-0.7-2.39-0.31-2.31,1.59c0.05,1.36,0.16,2.71,0.26,4.07c1.26,18.11-3.51,34.36-14.87,48.61
	c-6.67,8.37-14.84,15.01-23.75,20.82c-10.09,6.58-20.88,11.81-32,16.41c-13.62,5.63-27.61,10.22-41.83,14.05
	c-8.74,2.35-17.51,4.66-26.34,6.65c-10.83,2.44-21.8,4.23-32.9,4.99c-6.78,0.47-13.57,0.85-20.36,0.89
	c-15.26,0.08-30.28-1.85-44.93-6.25c-10.85-3.26-21-8-30.41-14.32c-8.38-5.63-15.91-12.22-22.67-19.72
	c-10.81-12.01-19.45-25.39-25.42-40.43c-2.68-6.74-4.89-13.64-6.17-20.81c-0.4-2.23-0.87-4.45-1.37-6.66
	c-0.49-2.18-1.01-2.43-3.19-1.64c-1.63,0.59-3.24,1.25-4.89,1.8c-2.08,0.69-4.18,0.58-6.21-0.25c-0.55-0.23-1.1-0.53-1.56-0.89
	c-2.37-1.86-2.32-4.55,0.18-6.2c2.68-1.76,5.67-2.86,8.76-3.61c9.37-2.29,18.74-1.87,28.04,0.35c1.47,0.35,2.96,1.22,4.1,2.23
	c2.11,1.86,1.42,4.89-1.27,5.73c-1.32,0.41-2.82,0.39-4.23,0.32c-1.57-0.09-3.13-0.54-4.7-0.68c-1.56-0.13-1.89,0.29-1.62,1.84
	c2.32,13.36,6.49,26.07,13.57,37.71c5.92,9.73,13.02,18.49,21.29,26.35c6.99,6.64,14.65,12.37,22.91,17.29
	c7.75,4.61,15.98,8.17,24.63,10.76c9.29,2.79,18.78,4.55,28.43,5.35C223.53,323.4,229.2,323.48,234.86,323.73z"/>
<path d="M180.68,168.73c-0.29-11.54,1.51-22.89,3.04-34.27c1.24-9.25,3.14-18.31,6.78-26.93c3.05-7.23,7.09-13.84,12.53-19.53
	c2.32-2.43,5.03-4.35,8.08-5.75c4.4-2.01,8.24-0.73,10.59,3.47c1.6,2.87,2.4,6,3.05,9.2c2.38,11.77,4.8,23.52,7.19,35.28
	c1.66,8.17,0.64,16.23-1.09,24.26c-1.53,7.09-4.53,13.62-8,19.9c-2.95,5.35-6.11,10.61-9.54,15.66c-2.31,3.42-5.11,6.54-7.94,9.56
	c-1.41,1.5-3.26,2.73-5.12,3.64c-4.56,2.24-9.09,1.04-12.44-2.78c-3.35-3.83-4.95-8.43-6.06-13.24c-0.99-4.29-1.3-8.65-1.09-13.05
	C180.76,172.35,180.68,170.54,180.68,168.73z"/>
<path d="M339.13,127.61c0,8.54-0.21,17.08,0.05,25.61c0.32,10.27-3.15,19.26-8.47,27.73c-3.15,5.02-6.85,9.59-11.5,13.32
	c-3.16,2.54-6.64,4.43-10.69,5.17c-4.87,0.9-9.07-1.08-11.63-5.52c-1.88-3.25-2.77-6.82-3.23-10.53c-0.87-7.12-0.1-14.17,0.61-21.24
	c0.63-6.24,1.18-12.48,1.72-18.72c0.62-7.15,0.91-14.33,1.86-21.44c1.46-10.89,5.55-20.68,13.49-28.57c4.07-4.04,8.66-7.3,14.2-9.03
	c1.07-0.34,2.2-0.57,3.32-0.69c4.37-0.47,7.36,1.35,8.67,5.55c0.67,2.14,1.14,4.42,1.23,6.66c0.28,6.41,0.36,12.83,0.46,19.25
	c0.06,4.15,0.01,8.3,0.01,12.46C339.21,127.61,339.17,127.61,339.13,127.61z"/>
</svg>
