<?xml version="1.0" encoding="utf-8"?>
<!-- Generator: Adobe Illustrator 24.1.1, SVG Export Plug-In . SVG Version: 6.00 Build 0)  -->
<svg version="1.1" id="Layer_1" xmlns="http://www.w3.org/2000/svg" xmlns:xlink="http://www.w3.org/1999/xlink" x="0px" y="0px"
	 viewBox="0 0 519 408" style="enable-background:new 0 0 519 408;" xml:space="preserve">
<style type="text/css">
	.st0{fill:#FFDB29;}
</style>
<g>
	<g>
		<path class="st0" d="M266.5,365.79c1.77,5.31,1.77,8.85,3.54,14.16c1.77,3.54,5.31,7.08,5.31,12.39
			c-30.09,10.62-63.72,7.08-92.05-8.85c-1.77-8.85-1.77-17.7-5.31-26.55c-3.54-8.85-12.39-14.16-15.93-23.01
			c-10.62-31.86-3.54-61.95,1.77-95.59c3.54-14.16,19.47-21.24,31.86-12.39c-1.77-8.85,3.54-17.7,8.85-23.01
			c12.39-10.62,31.86-1.77,37.17,14.16c12.39-35.4-12.39-70.8-23.01-102.67c-3.54-7.08,3.54-12.39,10.62-12.39
			c14.16-1.77,24.78,7.08,33.63,17.7c17.7,28.32,24.78,58.41,23.01,90.28c17.7-26.55,17.7-58.41,24.78-88.51
			c1.77-5.31,3.54-8.85,8.85-8.85c7.08,1.77,14.16,3.54,17.7,12.39c10.62,40.71,0,84.97-23.01,118.6
			c-1.77,15.93-8.85,30.09-12.39,46.02c-1.77,8.85,1.77,19.47-1.77,28.32c-1.77,7.08-7.08,14.16-14.16,19.47
			C278.89,346.32,273.58,356.94,266.5,365.79L266.5,365.79z"/>
	</g>
	<g>
		<path d="M328.45,119.75c-1.77-10.62-10.62-19.47-19.47-24.78c-8.85-3.54-14.16,8.85-15.93,15.93
			c-3.54,28.32-8.85,56.64-21.24,83.2c-1.77-23.01-5.31-46.02-12.39-67.26c-7.08-17.7-17.7-37.17-38.94-42.48
			c-10.62-1.77-24.78,0-23.01,12.39c1.77,17.7,14.16,30.09,19.47,47.79c3.54,19.47,14.16,38.94,5.31,56.64
			c-7.08-14.16-28.32-23.01-40.71-10.62c-5.31,5.31-8.85,12.39-8.85,21.24c-7.08-3.54-15.93-1.77-23.01,1.77
			c-5.31,3.54-8.85,8.85-10.62,15.93c-3.54,21.24-8.85,40.71-8.85,61.95c0,12.39,3.54,26.55,7.08,38.94
			c3.54,8.85,12.39,14.16,15.93,23.01s3.54,21.24,7.08,30.09c30.09,17.7,65.49,19.47,99.13,8.85c-1.77-8.85-8.85-17.7-7.08-28.32
			c1.77-7.08,7.08-14.16,12.39-21.24c8.85-8.85,17.7-19.47,21.24-30.09c5.31-12.39-1.77-24.78,3.54-37.17
			c7.08-15.93,7.08-33.63,15.93-49.56C324.91,194.09,333.76,156.92,328.45,119.75L328.45,119.75z M146.13,321.54
			c-1.77-12.39-3.54-24.78-1.77-38.94c1.77,7.08,5.31,15.93,12.39,17.7c10.62,3.54,17.7-7.08,21.24-15.93
			c5.31,10.62,21.24,12.39,30.09,3.54c10.62-14.16,8.85-30.09,12.39-46.02c3.54,7.08,7.08,12.39,12.39,17.7
			c-5.31,8.85-12.39,17.7-8.85,28.32c1.77,3.54,7.08,5.31,12.39,5.31c0-5.31,1.77-10.62,3.54-15.93c1.77-3.54,3.54-7.08,5.31-12.39
			c1.77-3.54,8.85-7.08,7.08-8.85c-14.16-10.62-26.55-28.32-17.7-44.25c8.85,8.85,21.24,15.93,31.86,23.01
			c1.77,24.78,3.54,49.56,5.31,74.34c-14.16,14.16-23.01,31.86-37.17,46.02c1.77,8.85,3.54,17.7,7.08,26.55
			c-24.78,7.08-49.56-1.77-72.57-8.85C165.6,353.4,158.52,335.7,146.13,321.54L146.13,321.54z M193.92,199.4
			c5.31-3.54,8.85,0,12.39,1.77c1.77,3.54,3.54,7.08,3.54,10.62c0,19.47-5.31,38.94-7.08,58.41c-1.77,1.77-3.54,5.31-5.31,7.08
			c-10.62,3.54-14.16-10.62-14.16-17.7C185.07,240.11,181.53,215.33,193.92,199.4L193.92,199.4z M165.6,282.6
			c-1.77,0-3.54,1.77-5.31,1.77c-12.39-15.93-7.08-37.17-7.08-54.87c0-5.31,7.08-10.62,14.16-5.31c1.77,1.77,3.54,5.31,3.54,7.08
			C170.91,248.97,174.45,264.9,165.6,282.6L165.6,282.6z M300.13,149.84c3.54-12.39,0-24.78,5.31-35.4c1.77-1.77,5.31-3.54,8.85,0
			c1.77,1.77,3.54,5.31,3.54,7.08c1.77,26.55-1.77,54.87-12.39,79.66c-8.85,17.7-17.7,35.4-23.01,53.1
			c0-10.62-3.54-19.47-5.31-28.32c-14.16-8.85-24.78-19.47-38.94-26.55c3.54-31.86-8.85-65.49-24.78-93.82c0-1.77,0-5.31,0-7.08
			c5.31-5.31,12.39-1.77,17.7,3.54c23.01,30.09,30.09,67.26,26.55,102.67c5.31,1.77,10.62,5.31,15.93,8.85
			c7.08-8.85,12.39-19.47,17.7-30.09c1.77-5.31,3.54-10.62,5.31-15.93C298.36,162.23,298.36,155.15,300.13,149.84L300.13,149.84z"/>
	</g>
	<path d="M405.9,148.36h-47.57c-1.89,0-3.43-1.54-3.43-3.43v-2.47c0-1.89,1.54-3.43,3.43-3.43h47.57c1.89,0,3.43,1.54,3.43,3.43
		v2.47C409.33,146.83,407.79,148.36,405.9,148.36z"/>
	<path d="M400.38,84.52l-41.2,23.79c-1.64,0.95-3.74,0.39-4.69-1.26l-1.24-2.14c-0.95-1.64-0.39-3.74,1.26-4.69l41.2-23.79
		c1.64-0.95,3.74-0.39,4.69,1.26l1.24,2.14C402.58,81.48,402.02,83.57,400.38,84.52z"/>
	<path d="M349.37,32.12l-23.79,41.2c-0.95,1.64-3.05,2.2-4.69,1.26l-2.14-1.24c-1.64-0.95-2.2-3.05-1.26-4.69l23.79-41.2
		c0.95-1.64,3.05-2.2,4.69-1.26l2.14,1.24C349.75,28.38,350.32,30.48,349.37,32.12z"/>
	<path d="M275.14,15.09v47.57c0,1.89-1.54,3.43-3.43,3.43h-2.47c-1.89,0-3.43-1.54-3.43-3.43V15.09c0-1.89,1.54-3.43,3.43-3.43
		l2.47,0C273.6,11.66,275.14,13.2,275.14,15.09z"/>
	<path d="M134.24,148.36h47.57c1.89,0,3.43-1.54,3.43-3.43v-2.47c0-1.89-1.54-3.43-3.43-3.43h-47.57c-1.89,0-3.43,1.54-3.43,3.43
		v2.47C130.81,146.83,132.34,148.36,134.24,148.36z"/>
	<path d="M139.76,84.52l41.2,23.79c1.64,0.95,3.74,0.39,4.69-1.26l1.24-2.14c0.95-1.64,0.39-3.74-1.26-4.69l-41.2-23.79
		c-1.64-0.95-3.74-0.39-4.69,1.26l-1.24,2.14C137.55,81.48,138.12,83.57,139.76,84.52z"/>
	<path d="M190.77,32.12l23.79,41.2c0.95,1.64,3.05,2.2,4.69,1.26l2.14-1.24c1.64-0.95,2.2-3.05,1.26-4.69l-23.79-41.2
		c-0.95-1.64-3.05-2.2-4.69-1.26l-2.14,1.24C190.38,28.38,189.82,30.48,190.77,32.12z"/>
</g>
</svg>
